PathFileType	4	(x/y/z)	S09_M20_T18
DataRate	CameraRate	NumFrames	NumMarkers	Units	OrigDataRate	OrigDataStartFrame	OrigNumFrames
240	240	8	51	mm	240	349	558
Frame#	Time	Sternum			R.Acromium			L.Acromium			Top.Head			R.ASIS			L.ASIS			R.PSIS			L.PSIS			R.Great.Tro			L.Great.Tro			R.Iliac.Crest			L.Iliac.Crest			V.Sacral			R.Thigh.Upper.Post			R.Thigh.Lower.Ant			R.Thigh.Lower.Post			R.Thigh.Upper.Ant			R.Knee.Lat			R.Knee.Med			R.Shank.Upper.Post			R.Shank.Lower.Ant			R.Shank.Lower.Post			R.Shank.Upper.Ant			R.Ankle.Lat			R.Ankle.Med			R.Heel.Upper			R.Heel.Med			R.Heel.Lat			R.Toe.Lat			R.Toe.Med			R.Toe.Tip			L.Thigh.Upper.Post			L.Thigh.Lower.Ant			L.Thigh.Lower.Post			L.Thigh.Upper.Ant			L.Knee.Lat			L.Knee.Med			L.Shank.Upper.Post			L.Shank.Lower.Ant			L.Shank.Lower.Post			L.Shank.Upper.Ant			L.Ankle.Lat			L.Ankle.Med			L.Heel.Upper			L.Heel.Med			L.Heel.Lat			L.Toe.Lat			L.Toe.Med			L.Toe.Tip			Cervical.Spine			Back			
		X1	Y1	Z1	X2	Y2	Z2	X3	Y3	Z3	X4	Y4	Z4	X5	Y5	Z5	X6	Y6	Z6	X7	Y7	Z7	X8	Y8	Z8	X9	Y9	Z9	X10	Y10	Z10	X11	Y11	Z11	X12	Y12	Z12	X13	Y13	Z13	X14	Y14	Z14	X15	Y15	Z15	X16	Y16	Z16	X17	Y17	Z17	X18	Y18	Z18	X19	Y19	Z19	X20	Y20	Z20	X21	Y21	Z21	X22	Y22	Z22	X23	Y23	Z23	X24	Y24	Z24	X25	Y25	Z25	X26	Y26	Z26	X27	Y27	Z27	X28	Y28	Z28	X29	Y29	Z29	X30	Y30	Z30	X31	Y31	Z31	X32	Y32	Z32	X33	Y33	Z33	X34	Y34	Z34	X35	Y35	Z35	X36	Y36	Z36	X37	Y37	Z37	X38	Y38	Z38	X39	Y39	Z39	X40	Y40	Z40	X41	Y41	Z41	X42	Y42	Z42	X43	Y43	Z43	X44	Y44	Z44	X45	Y45	Z45	X46	Y46	Z46	X47	Y47	Z47	X48	Y48	Z48	X49	Y49	Z49	X50	Y50	Z50	X51	Y51	Z51	

349	1.45	942.96	1153.6	325.24	803.39	1402.1	457.96	805.81	1387.7	145.81	806.82	1693.9	288.13	886.69	987.34	439.68	924.44	983.55	193.64	680.57	1013.2	325.93	703	1003.2	239.39	785.78	910.03	501.32	868.11	889.32	116.41	791.63	1069.3	469.87	814.04	1070.8	140.92	671.47	973.7	277.35	708.28	671.95	459.91	750.09	554.33	424.22	677.45	587.37	428.57	772.05	637.71	454.96	699.65	490.29	408.87	701.78	485.33	287.84	562.46	357.55	406.17	600.95	275.69	391.08	529.98	289.35	391.91	626.51	343.6	406.13	478.18	110.68	365.81	507.69	112.43	275.62	408.94	97.171	312.04	415.58	62.328	285.39	405.86	68.865	349.58	559.81	40.878	409.79	613.36	38.716	305.74	660.54	46.052	355.51	918.89	631.1	158.06	1036	582.51	159.56	973.01	558.55	177.57	985.06	652.18	135.36	1060.6	511.26	170.15	1065.3	524.17	310.42	1091.4	373.82	161.12	1194.6	335.56	166.9	1135.2	310.53	166.41	1150.3	398.94	162.29	1270	154.92	185	1294.8	171.43	275	1249.2	81.001	248.03	1277.2	75.582	279.56	1267	57.366	221.26	1390.5	163.51	141.86	1422.8	206.71	242.98	1441.8	245.3	178.01	725.92	1445.8	309.24	682.03	1175	297.83
350	1.4542	948.89	1152.8	324.78	809.1	1401.2	457.52	811.26	1386.8	145.36	812.04	1693	287.69	892.33	986.27	439.37	930.63	982.84	193.38	686.5	1012.5	325.37	709.13	1002.5	238.89	790.97	909.15	500.92	874.6	888.77	116.06	797.42	1068.4	469.49	820.1	1070	140.57	677.43	973.07	276.72	712.24	671.62	459.48	753.59	553.76	423.92	681.1	587.16	428.05	775.89	637.05	454.63	702.82	489.96	408.57	705.12	484.91	287.48	564.92	358.08	405.81	602.87	275.95	390.82	531.99	290.08	391.58	628.88	343.7	405.85	478.99	111.72	365.7	508.6	113.18	275.56	409.65	98.623	311.94	416.04	63.737	285.28	406.37	70.3	349.48	559.98	40.999	409.74	613.6	38.688	305.8	660.79	45.801	355.61	926.28	630.68	157.81	1043.5	582.6	159.91	980.51	558.34	177.51	992.39	652.1	135.51	1068.2	511.27	170.48	1072.4	524.17	310.44	1097.8	373.61	161.06	1200.5	334.25	167.41	1140.8	309.85	166.4	1156.9	398.1	162.74	1273.6	152.87	185.34	1298.1	168.73	275.52	1252	78.663	247.93	1280.1	72.906	279.38	1269.9	55.133	221.01	1393.9	161.19	142.48	1426.4	203.53	243.94	1445.6	242.48	179.26	731.46	1444.8	308.84	687.92	1174	297.59
351	1.4583	954.87	1152	324.29	814.84	1400.3	457.06	816.73	1385.9	144.89	817.27	1692.1	287.24	898.02	985.2	439.05	936.89	982.16	193.11	692.48	1011.8	324.79	715.31	1001.8	238.36	796.21	908.28	500.5	881.15	888.23	115.7	803.26	1067.4	469.09	826.24	1069.3	140.2	683.44	972.46	276.06	716.28	671.3	459.03	757.17	553.2	423.6	684.84	586.97	427.52	779.82	636.4	454.29	706.08	489.64	408.26	708.56	484.49	287.11	567.46	358.64	405.46	604.85	276.24	390.57	534.08	290.86	391.25	631.31	343.83	405.57	479.86	112.82	365.6	509.56	113.98	275.51	410.4	100.17	311.85	416.54	65.245	285.18	406.91	71.83	349.39	560.16	41.138	409.7	613.86	38.665	305.87	661.05	45.562	355.71	933.64	630.27	157.56	1051	582.66	160.26	987.99	558.13	177.46	999.71	652	135.66	1075.8	511.25	170.81	1079.4	524.16	310.45	1104	373.36	160.99	1206.2	332.86	167.91	1146.3	309.12	166.39	1163.4	397.2	163.2	1277	150.72	185.64	1301.2	165.91	276.02	1254.7	76.26	247.78	1282.7	70.15	279.16	1272.5	52.833	220.72	1397.2	158.74	143.1	1429.8	200.2	244.91	1449.2	239.51	180.52	737.04	1443.8	308.43	693.86	1172.9	297.35
352	1.4625	960.89	1151.2	323.79	820.6	1399.4	456.59	822.23	1385	144.41	822.49	1691.3	286.79	903.76	984.15	438.73	943.22	981.49	192.86	698.52	1011.2	324.18	721.57	1001.1	237.81	801.49	907.43	500.05	887.74	887.71	115.33	809.15	1066.5	468.68	832.44	1068.6	139.82	689.52	971.88	275.37	720.42	671	458.56	760.84	552.66	423.26	688.67	586.78	426.96	783.83	635.76	453.93	709.44	489.33	407.94	712.1	484.09	286.73	570.09	359.24	405.1	606.9	276.57	390.32	536.24	291.68	390.92	633.83	343.99	405.3	480.77	113.97	365.51	510.56	114.83	275.48	411.21	101.82	311.77	417.08	66.855	285.08	407.51	73.456	349.3	560.36	41.295	409.65	614.12	38.646	305.93	661.31	45.336	355.81	940.98	629.86	157.31	1058.4	582.69	160.6	995.44	557.91	177.41	1007	651.87	135.81	1083.3	511.19	171.14	1086.4	524.14	310.46	1110.2	373.07	160.92	1211.8	331.38	168.42	1151.7	308.34	166.36	1169.8	396.22	163.66	1280.2	148.5	185.92	1304.1	162.98	276.49	1257.1	73.816	247.58	1285	67.34	278.89	1274.8	50.485	220.38	1400.3	156.18	143.71	1432.9	196.72	245.87	1452.6	236.4	181.79	742.63	1442.8	308	699.85	1171.8	297.09
353	1.4667	966.96	1150.5	323.27	826.4	1398.5	456.1	827.76	1384.1	143.92	827.73	1690.4	286.33	909.56	983.12	438.4	949.61	980.83	192.6	704.64	1010.6	323.55	727.89	1000.5	237.24	806.82	906.59	499.58	894.4	887.21	114.96	815.09	1065.6	468.25	838.71	1067.9	139.43	695.67	971.33	274.66	724.65	670.7	458.07	764.61	552.14	422.9	692.59	586.61	426.39	787.93	635.15	453.56	712.91	489.03	407.63	715.74	483.7	286.35	572.8	359.87	404.75	609.02	276.93	390.07	538.47	292.55	390.59	636.43	344.17	405.03	481.74	115.19	365.42	511.61	115.74	275.45	412.07	103.58	311.69	417.67	68.568	284.98	408.14	75.179	349.21	560.57	41.47	409.61	614.39	38.632	306.01	661.58	45.121	355.91	948.29	629.44	157.07	1065.9	582.68	160.93	1002.8	557.66	177.38	1014.2	651.71	135.97	1090.8	511.09	171.47	1093.3	524.09	310.46	1116.3	372.74	160.85	1217.3	329.82	168.92	1157	307.5	166.33	1176.1	395.17	164.13	1283.2	146.21	186.17	1306.7	159.97	276.95	1259.2	71.359	247.35	1287.1	64.505	278.59	1276.9	48.115	220.01	1403.2	153.51	144.31	1435.8	193.13	246.84	1455.8	233.18	183.06	748.26	1441.9	307.56	705.89	1170.8	296.83
354	1.4708	973.07	1149.7	322.73	832.23	1397.6	455.59	833.32	1383.3	143.42	832.97	1689.6	285.86	915.42	982.09	438.08	956.08	980.19	192.35	710.81	1010	322.88	734.29	999.86	236.63	812.19	905.77	499.08	901.12	886.72	114.58	821.08	1064.6	467.81	845.06	1067.2	139.03	701.88	970.81	273.91	728.98	670.42	457.55	768.48	551.63	422.54	696.62	586.45	425.81	792.12	634.55	453.18	716.48	488.75	407.31	719.49	483.32	285.97	575.6	360.55	404.4	611.22	277.32	389.84	540.79	293.47	390.27	639.11	344.38	404.77	482.76	116.47	365.35	512.72	116.71	275.44	412.99	105.43	311.62	418.29	70.386	284.89	408.83	77	349.14	560.79	41.666	409.57	614.68	38.621	306.08	661.84	44.919	356.01	955.57	629.02	156.82	1073.2	582.62	161.26	1010.2	557.4	177.35	1021.5	651.51	136.12	1098.2	510.93	171.81	1100.2	524.02	310.46	1122.3	372.36	160.77	1222.7	328.19	169.43	1162.1	306.6	166.29	1182.3	394.06	164.6	1286	143.87	186.4	1309.2	156.89	277.39	1261.2	68.917	247.09	1289	61.675	278.27	1278.7	45.745	219.62	1405.9	150.74	144.91	1438.6	189.45	247.79	1458.8	229.85	184.32	753.91	1440.9	307.11	711.99	1169.7	296.55
355	1.475	979.24	1149	322.18	838.07	1396.8	455.06	838.92	1382.4	142.9	838.21	1688.7	285.39	921.33	981.09	437.76	962.61	979.56	192.11	717.05	1009.4	322.18	740.76	999.25	235.99	817.61	904.97	498.55	907.91	886.25	114.2	827.13	1063.7	467.36	851.5	1066.5	138.62	708.16	970.3	273.13	733.42	670.16	457.02	772.46	551.14	422.17	700.76	586.3	425.22	796.42	633.97	452.79	720.16	488.48	407	723.36	482.95	285.58	578.5	361.27	404.05	613.48	277.76	389.63	543.18	294.44	389.95	641.87	344.62	404.53	483.84	117.81	365.29	513.89	117.74	275.44	413.98	107.39	311.55	418.97	72.311	284.81	409.56	78.921	349.06	561.03	41.88	409.53	614.98	38.613	306.16	662.11	44.728	356.1	962.8	628.59	156.57	1080.5	582.51	161.57	1017.5	557.11	177.33	1028.7	651.27	136.27	1105.5	510.71	172.14	1107.1	523.91	310.47	1128.2	371.92	160.69	1227.9	326.49	169.94	1167.2	305.65	166.25	1188.4	392.87	165.07	1288.7	141.49	186.6	1311.5	153.76	277.81	1263	66.52	246.8	1290.8	58.881	277.93	1280.4	43.402	219.21	1408.5	147.9	145.49	1441.3	185.68	248.72	1461.8	226.42	185.56	759.58	1439.9	306.64	718.14	1168.7	296.25
356	1.4792	985.45	1148.4	321.62	843.95	1395.9	454.52	844.55	1381.6	142.37	843.45	1687.9	284.91	927.3	980.11	437.45	969.22	978.95	191.88	723.36	1008.9	321.45	747.3	998.67	235.32	823.08	904.19	497.98	914.77	885.78	113.81	833.21	1062.9	466.89	858.01	1065.9	138.19	714.52	969.81	272.31	737.96	669.9	456.46	776.54	550.67	421.8	705	586.16	424.62	800.82	633.41	452.39	723.95	488.22	406.7	727.34	482.58	285.21	581.49	362.02	403.71	615.83	278.22	389.43	545.67	295.46	389.63	644.73	344.89	404.3	484.98	119.22	365.24	515.12	118.83	275.46	415.02	109.46	311.5	419.7	74.343	284.72	410.36	80.942	348.99	561.29	42.115	409.49	615.29	38.608	306.24	662.37	44.55	356.2	969.99	628.15	156.32	1087.8	582.33	161.88	1024.7	556.78	177.32	1035.8	650.99	136.41	1112.7	510.42	172.46	1113.9	523.77	310.47	1134	371.43	160.61	1233.1	324.72	170.44	1172.1	304.64	166.22	1194.3	391.61	165.54	1291.2	139.09	186.79	1313.7	150.6	278.21	1264.7	64.2	246.49	1292.3	56.152	277.57	1281.9	41.111	218.79	1411	144.98	146.06	1443.8	181.85	249.64	1464.6	222.92	186.77	765.28	1439	306.15	724.34	1167.7	295.93
